<svg viewBox="0 0 582 579">
    <path d="M531.835294,328.958824 L330.156863,328.958824 L330.156863,529.541176 C330.156863,540.501961 326.320588,549.818627 318.648039,557.491176 C310.97549,565.163725 301.658824,569 290.698039,569 L290.698039,569 C280.467974,569 271.333987,565.163725 263.296078,557.491176 C255.25817,549.818627 251.239216,540.501961 251.239216,529.541176 L251.239216,328.958824 L49.5607843,328.958824 C38.6,328.958824 29.2833333,324.939869 21.6107843,316.901961 C13.9382353,308.864052 10.1019608,299.730065 10.1019608,289.5 L10.1019608,289.5 C10.1019608,278.539216 13.9382353,269.222549 21.6107843,261.55 C29.2833333,253.877451 38.6,250.041176 49.5607843,250.041176 L251.239216,250.041176 L251.239216,49.4588235 C251.239216,38.4980392 255.25817,29.1813725 263.296078,21.5088235 C271.333987,13.8362745 280.467974,10 290.698039,10 L290.698039,10 C301.658824,10 310.97549,13.8362745 318.648039,21.5088235 C326.320588,29.1813725 330.156863,38.4980392 330.156863,49.4588235 L330.156863,250.041176 L531.835294,250.041176 C542.796078,250.041176 552.112745,253.877451 559.785294,261.55 C567.457843,269.222549 571.294118,278.539216 571.294118,289.5 L571.294118,289.5 C571.294118,299.730065 567.457843,308.864052 559.785294,316.901961 C552.112745,324.939869 542.796078,328.958824 531.835294,328.958824 Z"></path>
</svg>