<?xml version="1.0" encoding="UTF-8"?>
<svg width="35px" height="22px" viewBox="0 0 35 22" version="1.1" xmlns="http://www.w3.org/2000/svg" xmlns:xlink="http://www.w3.org/1999/xlink">
	<g transform="translate(-215.000000, -33.000000)" fill="#B2D236">
		<g transform="translate(146.000000, 33.000000)">
			<path d="M86.3844459,16.3351127 C87.8964908,16.3351127 89.1268741,17.6060342 89.1268741,19.1690974 C89.1268741,20.7300518 87.8964908,22 86.3844459,22 C84.8703577,22 83.6388741,20.7300518 83.6388741,19.1690974 C83.6388741,17.6060342 84.8703577,16.3351127 86.3844459,16.3351127 Z M69.7711275,1.69445387 L85.4047602,7.93080973 L85.4047602,10.1959211 L71.5464443,4.66745314 L71.5464443,6.38153451 L85.4047602,11.911949 L85.4047602,14.0798962 L69.7711275,20.3055461 L69.7711275,13.9485054 L75.2487538,11.7677436 L78.0886319,12.9012726 L71.5464443,15.50654 L71.5464443,17.3333579 L82.4427554,12.9943816 L69.7711275,7.93859584 L69.7711275,1.69445387 Z M103.04869,1.69445387 L103.04869,7.93859584 L90.3772189,12.9943816 L101.273373,17.3333579 L101.273373,15.50654 L94.731814,12.9012726 L97.5716921,11.7677436 L103.04869,13.9485054 L103.04869,20.3055461 L87.4152141,14.0798962 L87.4152141,11.911949 L101.273373,6.38153451 L101.273373,4.66745314 L87.4152141,10.1959211 L87.4152141,7.93080973 L103.04869,1.69445387 Z M86.3844459,18.1061301 C85.8170361,18.1061301 85.3554066,18.5827054 85.3554066,19.1690974 C85.3554066,19.7535428 85.8170361,20.2280094 86.3844459,20.2280094 C86.9501267,20.2280094 87.4104988,19.7535428 87.4104988,19.1690974 C87.4104988,18.5827054 86.9501267,18.1061301 86.3844459,18.1061301 Z M86.3844459,-1.95399252e-15 C87.8964908,-1.95399252e-15 89.1268741,1.26978603 89.1268741,2.82992936 C89.1268741,4.39299249 87.8964908,5.66375179 86.3844459,5.66375179 C84.8703577,5.66375179 83.6388741,4.39299249 83.6388741,2.82992936 C83.6388741,1.26978603 84.8703577,-1.95399252e-15 86.3844459,-1.95399252e-15 Z M86.3844459,1.77182841 C85.8170361,1.77182841 85.3554066,2.24645717 85.3554066,2.82992936 C85.3554066,3.41632135 85.8170361,3.89289664 86.3844459,3.89289664 C86.9501267,3.89289664 87.4104988,3.41632135 87.4104988,2.82992936 C87.4104988,2.24645717 86.9501267,1.77182841 86.3844459,1.77182841 Z"></path>
		</g>
	</g>
</svg>